<?xml version="1.0" encoding="UTF-8" standalone="no"?>
<svg
   xmlns:dc="http://purl.org/dc/elements/1.1/"
   xmlns:cc="http://creativecommons.org/ns#"
   xmlns:rdf="http://www.w3.org/1999/02/22-rdf-syntax-ns#"
   xmlns:svg="http://www.w3.org/2000/svg"
   xmlns="http://www.w3.org/2000/svg"
   xmlns:sodipodi="http://sodipodi.sourceforge.net/DTD/sodipodi-0.dtd"
   xmlns:inkscape="http://www.inkscape.org/namespaces/inkscape"
   width="50mm"
   height="50mm"
   viewBox="0 0 50 50"
   version="1.1"
   id="svg8"
   inkscape:version="1.0.2-2 (e86c870879, 2021-01-15)"
   sodipodi:docname="battery.svg">
  <defs
     id="defs2" />
  <sodipodi:namedview
     id="base"
     pagecolor="#ffffff"
     bordercolor="#666666"
     borderopacity="1.0"
     inkscape:pageopacity="0.0"
     inkscape:pageshadow="2"
     inkscape:zoom="5.6"
     inkscape:cx="16.610556"
     inkscape:cy="87.264409"
     inkscape:document-units="mm"
     inkscape:current-layer="layer1"
     inkscape:document-rotation="0"
     showgrid="false"
     inkscape:window-width="2637"
     inkscape:window-height="1518"
     inkscape:window-x="38"
     inkscape:window-y="38"
     inkscape:window-maximized="0" />
  <metadata
     id="metadata5">
    <rdf:RDF>
      <cc:Work
         rdf:about="">
        <dc:format>image/svg+xml</dc:format>
        <dc:type
           rdf:resource="http://purl.org/dc/dcmitype/StillImage" />
        <dc:title></dc:title>
      </cc:Work>
    </rdf:RDF>
  </metadata>
  <g
     inkscape:label="Layer 1"
     inkscape:groupmode="layer"
     id="layer1">
    <path
       id="rect971"
       style="fill:#000000;fill-opacity:1;fill-rule:evenodd;stroke:none;stroke-width:10.3392;stroke-linecap:round;stroke-miterlimit:4;stroke-dasharray:none;stroke-opacity:1"
       d="M 45.353516 26.457031 C 41.165799 26.457031 37.794922 29.827908 37.794922 34.015625 L 37.794922 56.693359 C 27.325631 56.693359 18.898438 65.120552 18.898438 75.589844 L 18.898438 132.07422 C 18.898437 142.54351 27.325631 150.9707 37.794922 150.9707 L 151.18164 150.9707 C 161.65093 150.9707 170.07813 142.54351 170.07812 132.07422 L 170.07812 75.589844 C 170.07812 65.120552 161.65093 56.693359 151.18164 56.693359 L 151.18164 34.015625 C 151.18164 29.827908 147.80881 26.457031 143.62109 26.457031 L 113.38672 26.457031 C 109.199 26.457031 105.82617 29.827908 105.82617 34.015625 L 105.82617 56.693359 L 83.150391 56.693359 L 83.150391 34.015625 C 83.150391 29.827908 79.77756 26.457031 75.589844 26.457031 L 45.353516 26.457031 z M 60.472656 71.810547 A 5.6856209 3.7950992 0 0 1 60.488281 71.810547 A 5.6856209 3.7950992 0 0 1 66.171875 75.605469 L 66.171875 92.597656 L 83.097656 92.597656 A 3.7795276 5.6692909 0 0 1 86.876953 98.267578 A 3.7795276 5.6692909 0 0 1 83.097656 103.9375 L 66.171875 103.9375 L 66.171875 120.92969 A 5.6856209 3.7950992 0 0 1 60.488281 124.72461 A 5.6856209 3.7950992 0 0 1 54.802734 120.92969 L 54.802734 103.9375 L 37.794922 103.9375 A 3.7795276 5.6692909 0 0 1 34.015625 98.267578 A 3.7795276 5.6692909 0 0 1 37.794922 92.597656 L 54.802734 92.597656 L 54.802734 75.605469 A 5.6856209 3.7950992 0 0 1 60.472656 71.810547 z M 105.82617 92.597656 L 151.12891 92.597656 A 3.7794389 5.6692911 0 0 1 154.9082 98.267578 A 3.7794389 5.6692911 0 0 1 151.12891 103.9375 L 105.82617 103.9375 A 3.7794389 5.6692911 0 0 1 102.04688 98.267578 A 3.7794389 5.6692911 0 0 1 105.82617 92.597656 z "
       transform="scale(0.26458333)" />
  </g>
</svg>
